HIERARCHY
ROOT Hips
{
	OFFSET	0.00	0.00	0.00
	CHANNELS 6 Xposition Yposition Zposition Zrotation Xrotation Yrotation
	JOINT LeftUpLeg
	{
		OFFSET	 0.126116	-0.014019	-0.065224
		CHANNELS 3 Zrotation Xrotation Yrotation
		JOINT LeftLeg
		{
			OFFSET	 0.000000	 0.000000	 0.569914
			CHANNELS 3 Zrotation Xrotation Yrotation
			JOINT LeftFoot
			{
				OFFSET	 0.000000	 0.000000	 0.544423
				CHANNELS 3 Zrotation Xrotation Yrotation
				JOINT LeftToeBase
				{
					OFFSET	 0.000000	 0.000000	 0.207117
					CHANNELS 3 Zrotation Xrotation Yrotation
					End Site
					{
						OFFSET	 0.000000	 0.000000	 0.207117
					}
				}
			}
		}
	}
	JOINT RightUpLeg
	{
		OFFSET	-0.124023	-0.008373	-0.065224
		CHANNELS 3 Zrotation Xrotation Yrotation
		JOINT RightLeg
		{
			OFFSET	 0.000000	 0.000000	 0.570047
			CHANNELS 3 Zrotation Xrotation Yrotation
			JOINT RightFoot
			{
				OFFSET	 0.000000	 0.000000	 0.544354
				CHANNELS 3 Zrotation Xrotation Yrotation
				JOINT RightToeBase
				{
					OFFSET	 0.000000	 0.000000	 0.207540
					CHANNELS 3 Zrotation Xrotation Yrotation
					End Site
					{
						OFFSET	 0.000000	 0.000000	 0.207540
					}
				}
			}
		}
	}
	JOINT Spine
	{
		OFFSET	 0.000184	-0.007763	 0.117403
		CHANNELS 3 Zrotation Xrotation Yrotation
		JOINT Spine1
		{
			OFFSET	 0.000000	 0.000000	 0.137269
			CHANNELS 3 Zrotation Xrotation Yrotation
			JOINT Spine2
			{
				OFFSET	 0.000000	 0.000000	 0.156879
				CHANNELS 3 Zrotation Xrotation Yrotation
				JOINT LeftShoulder
				{
					OFFSET	 0.080501	-0.002496	 0.160144
					CHANNELS 3 Zrotation Xrotation Yrotation
					JOINT LeftArm
					{
						OFFSET	 0.000000	 0.000000	 0.164363
						CHANNELS 3 Zrotation Xrotation Yrotation
						JOINT LeftForeArm
						{
							OFFSET	 0.000000	 0.000000	 0.364576
							CHANNELS 3 Zrotation Xrotation Yrotation
							JOINT LeftHand
							{
								OFFSET	 0.000000	 0.000000	 0.360812
								CHANNELS 3 Zrotation Xrotation Yrotation
								JOINT LeftHandIndex1
								{
									OFFSET	 0.000000	 0.000000	 0.086006
									CHANNELS 3 Zrotation Xrotation Yrotation
									JOINT LeftHandIndex2
									{
										OFFSET	 0.000000	 0.000000	 0.047236
										CHANNELS 3 Zrotation Xrotation Yrotation
										JOINT LeftHandIndex3
										{
											OFFSET	-0.004284	-0.000551	 0.038166
											CHANNELS 3 Zrotation Xrotation Yrotation
											End Site
											{
												OFFSET	-0.004284	-0.000551	 0.038166
											}
										}
									}
								}
							}
						}
					}
				}
				JOINT Neck
				{
					OFFSET	 0.000000	 0.000000	 0.176489
					CHANNELS 3 Zrotation Xrotation Yrotation
					JOINT Head
					{
						OFFSET	 0.000000	-0.001747	 0.077940
						CHANNELS 3 Zrotation Xrotation Yrotation
						End Site
						{
							OFFSET	 0.000000	-0.001747	 0.077940
						}
					}
				}
				JOINT RightShoulder
				{
					OFFSET	-0.080363	 0.000306	 0.159706
					CHANNELS 3 Zrotation Xrotation Yrotation
					JOINT RightArm
					{
						OFFSET	 0.000000	 0.000000	 0.164196
						CHANNELS 3 Zrotation Xrotation Yrotation
						JOINT RightForeArm
						{
							OFFSET	 0.000000	 0.000000	 0.365611
							CHANNELS 3 Zrotation Xrotation Yrotation
							JOINT RightHand
							{
								OFFSET	 0.000000	 0.000000	 0.360648
								CHANNELS 3 Zrotation Xrotation Yrotation
								JOINT RightHandIndex1
								{
									OFFSET	 0.000000	 0.000000	 0.069977
									CHANNELS 3 Zrotation Xrotation Yrotation
									JOINT RightHandIndex2
									{
										OFFSET	 0.000000	 0.000000	 0.052305
										CHANNELS 3 Zrotation Xrotation Yrotation
										JOINT RightHandIndex3
										{
											OFFSET	 0.009002	-0.000782	 0.042196
											CHANNELS 3 Zrotation Xrotation Yrotation
											End Site
											{
												OFFSET	 0.009002	-0.000782	 0.042196
											}
										}
									}
								}
							}
						}
					}
				}
			}
		}
	}
}
MOTION
Frames:    4
Frame Time: 0.03333334
-0.000113	 0.016951	 1.310584	 0.001840	 0.016002	 0.051479	 10.398570	-2.018380	 176.955000	 1.481909	-11.240110	-0.655066	-6.622583	 62.895280	 0.800392	-2.385833	 28.452760	 0.000004	-10.524400	-2.383183	-177.092300	-1.464847	-11.543810	 0.660871	 6.384394	 62.942690	-0.695484	 2.384658	 28.388730	 0.000004	 26.003820	 1.740684	 0.127720	-0.478613	 6.989965	-0.144630	 1.484411	-8.919706	 0.394682	-91.776130	 78.527450	 179.999900	 44.038200	 32.662650	-54.489710	-26.098300	 3.408330	-9.855135	-17.593020	-39.442580	 3.824388	-2.635965	 4.993658	 6.788941	-5.165319	 0.784187	 3.516649	-5.225038	 0.466231	 0.424329	-0.000002	-3.783157	-0.089647	 1.413293	 3.025201	-0.037335	 89.782160	 78.203900	 179.999900	-1.675666	 12.414420	 109.482900	-16.388500	 3.097670	 9.986753	-15.683150	-37.220570	-16.763150	 6.112037	 4.509576	-0.364401	 4.968462	 1.518543	-9.347576	 5.168945	 0.703820	 2.021906
-0.000127	 0.016888	 1.311490	 0.001772	 0.016225	 0.046913	 10.601250	-2.022406	 176.946100	 1.482099	-11.223760	-0.654087	-6.605234	 62.732200	 0.789237	-2.385833	 28.452760	 0.000004	-10.725910	-2.401246	-177.077000	-1.464721	-11.554280	 0.661487	 6.369893	 62.794250	-0.687050	 2.384658	 28.388730	 0.000004	 27.769670	 1.734603	 0.122397	-0.418517	 7.010455	-0.123248	 1.304305	-8.948100	 0.346012	-91.776100	 78.527420	 179.999900	 44.089480	 32.659370	-54.531080	-24.552880	 2.883854	-9.099202	-15.203940	-41.197530	 5.779158	-2.635965	 4.993658	 6.788941	-5.165319	 0.784187	 3.516649	-5.225038	 0.466231	 0.424329	-0.000002	-3.783157	-0.089647	 1.244240	 3.017442	-0.032786	 89.782190	 78.203870	 179.999900	-1.740301	 12.466590	 109.434500	-17.987670	 2.568773	 9.223899	-18.456880	-38.551980	-18.907540	 6.112037	 4.509576	-0.364401	 4.968462	 1.518543	-9.347576	 5.168945	 0.703820	 2.021906
-0.000128	 0.016812	 1.312304	 0.001681	 0.016388	 0.042267	 10.801070	-2.026830	 176.937500	 1.482273	-11.208760	-0.653190	-6.588285	 62.572050	 0.778458	-2.385833	 28.452760	 0.000004	-10.924510	-2.419513	-177.061800	-1.464588	-11.565470	 0.662146	 6.355680	 62.648370	-0.678879	 2.384658	 28.388730	 0.000004	 29.236530	 1.729398	 0.117226	-0.358879	 7.028138	-0.102104	 1.125601	-8.972526	 0.297560	-91.776140	 78.527430	 179.999900	 44.148340	 32.672890	-54.596660	-22.980730	 2.397705	-8.313371	-12.981080	-42.184860	 7.544816	-2.635965	 4.993658	 6.788941	-5.165319	 0.784187	 3.516649	-5.225038	 0.466231	 0.424329	-0.000002	-3.783157	-0.089647	 1.076674	 3.010902	-0.028311	 89.782070	 78.203870	-180.000000	-1.703821	 12.546750	 109.388700	-19.616560	 2.079265	 8.428476	-20.847640	-39.170640	-20.732330	 6.112037	 4.509576	-0.364401	 4.968462	 1.518543	-9.347576	 5.168945	 0.703820	 2.021906
-0.000121	 0.016727	 1.313106	 0.001584	 0.016482	 0.037281	 11.008320	-2.031405	 176.928800	 1.482452	-11.193370	-0.652270	-6.570718	 62.406010	 0.767317	-2.385833	 28.452760	 0.000004	-11.130470	-2.438689	-177.046000	-1.464445	-11.577520	 0.662854	 6.340919	 62.497320	-0.670434	 2.384658	 28.388730	 0.000004	 30.470190	 1.724835	 0.111954	-0.296683	 7.043898	-0.079956	 0.939216	-8.994164	 0.246809	-91.776200	 78.527450	 180.000000	 44.223540	 32.694550	-54.690420	-21.299150	 1.931511	-7.457917	-10.916870	-42.445680	 9.065855	-2.635965	 4.993658	 6.788941	-5.165319	 0.784187	 3.516649	-5.225038	 0.466231	 0.424329	-0.000002	-3.783157	-0.089647	 0.901970	 3.005049	-0.023673	 89.782100	 78.203890	 180.000000	-1.688874	 12.627330	 109.324800	-21.357570	 1.609400	 7.565187	-22.868930	-39.110140	-22.178500	 6.112037	 4.509576	-0.364401	 4.968462	 1.518543	-9.347576	 5.168945	 0.703820	 2.021906
